<svg width="14" height="10" viewBox="0 0 14 10" fill="none" xmlns="http://www.w3.org/2000/svg">
<path d="M5.23949 9.27955C5.11245 9.27981 4.98662 9.25416 4.8692 9.20405C4.75179 9.15394 4.6451 9.08036 4.55527 8.98755L0.449985 4.74455C0.357492 4.65237 0.283691 4.54208 0.232889 4.42011C0.182087 4.29814 0.155302 4.16694 0.154095 4.03417C0.152889 3.90139 0.177285 3.76969 0.225862 3.64676C0.274438 3.52383 0.346221 3.41213 0.437023 3.31817C0.527825 3.22421 0.635826 3.14988 0.754726 3.09951C0.873626 3.04915 1.00104 3.02375 1.12954 3.02481C1.25804 3.02587 1.38505 3.05336 1.50316 3.10568C1.62127 3.158 1.72811 3.2341 1.81745 3.32955L5.23852 6.86455L11.3984 0.501546C11.5799 0.313906 11.826 0.208437 12.0827 0.208344C12.3395 0.20825 12.5857 0.313538 12.7673 0.501046C12.9489 0.688554 13.051 0.942923 13.0511 1.20819C13.0512 1.47346 12.9493 1.72791 12.7678 1.91555L5.9237 8.98755C5.83387 9.08036 5.72719 9.15394 5.60978 9.20405C5.49236 9.25416 5.36652 9.27981 5.23949 9.27955V9.27955Z" fill="#2FAB73"/>
</svg>
